# xmcd
#
# Track frame offsets:
#	150
#	13323
#	25399
#	43033
#	53538
#	67650
#	74642
#	87493
#	101813
#	117497
#	130291
#	146067
#	171539
#	192105
#	204569
#	227448
#	240678
#	252587
#	265433
#	290444
#
# Disc length: 4029 seconds
# Revision: 0
# Processed by: cddbd v1.5.2PL0 Copyright (c) Steve Scherf et al.
# Submitted via: dBpowerAMP V12.0
#
DISCID=370fbb14
DTITLE=Fleetwood  Mac - Single Collection
DYEAR=1967
DGENRE=Blues
TTITLE0=I believe my time ain't long
TTITLE1=rambling pony
TTITLE2=nee your love so bad
TTITLE3=stop messin' around
TTITLE4=albatros
TTITLE5=jigsaw puzzle
TTITLE6=black magic woman
TTITLE7=the sun is shining
TTITLE8=rattles snake shake
TTITLE9=man of the world
TTITLE10=oh well part 1
TTITLE11=oh well part 2
TTITLE12=the green manalishi
TTITLE13=dragonfly
TTITLE14=love that burns
TTITLE15=shake your money maker
TTITLE16=coming home
TTITLE17=looking for somebody
TTITLE18=just the blues
TTITLE19=the big boat
EXTD=
EXTT0=
EXTT1=
EXTT2=
EXTT3=
EXTT4=
EXTT5=
EXTT6=
EXTT7=
EXTT8=
EXTT9=
EXTT10=
EXTT11=
EXTT12=
EXTT13=
EXTT14=
EXTT15=
EXTT16=
EXTT17=
EXTT18=
EXTT19=
PLAYORDER=
